<?xml version="1.0" encoding="UTF-8" standalone="no"?>
<!DOCTYPE svg PUBLIC "-//W3C//DTD SVG 20010904//EN"
              "http://www.w3.org/TR/2001/REC-SVG-20010904/DTD/svg10.dtd">

<svg xmlns="http://www.w3.org/2000/svg"
     width="3.13889in" height="4.16667in"
     viewBox="0 0 226 300">
  <path id="Selection"
        fill="black" stroke="black" stroke-width="1"
        d="M 106.00,0.00
           C 106.00,0.00 190.00,0.00 190.00,0.00
             190.00,0.00 217.00,0.00 217.00,0.00
             219.35,0.02 222.61,-0.19 224.40,1.60
             226.32,3.52 225.99,7.46 226.00,10.00
             226.00,10.00 226.00,157.00 226.00,157.00
             226.00,157.00 226.00,267.00 226.00,267.00
             226.00,267.00 226.00,291.00 226.00,291.00
             225.98,293.35 226.19,296.61 224.40,298.40
             222.48,300.32 218.54,299.99 216.00,300.00
             216.00,300.00 50.00,300.00 50.00,300.00
             50.00,300.00 16.00,300.00 16.00,300.00
             12.97,300.00 4.58,300.49 2.31,298.98
             -0.45,297.14 0.01,292.91 0.00,290.00
             0.00,290.00 0.00,80.00 0.00,80.00
             0.00,77.89 -0.12,74.96 0.60,73.00
             1.76,69.79 11.37,59.11 14.17,56.00
             14.17,56.00 44.73,22.00 44.73,22.00
             48.73,17.33 60.68,3.43 65.17,0.74
             65.17,0.74 106.00,0.00 106.00,0.00 Z
           M 76.00,14.00
           C 76.00,14.00 76.00,76.00 76.00,76.00
             75.98,87.13 72.65,88.98 62.00,89.00
             62.00,89.00 14.00,89.00 14.00,89.00
             14.00,89.00 14.00,286.00 14.00,286.00
             14.00,286.00 212.00,286.00 212.00,286.00
             212.00,286.00 212.00,14.00 212.00,14.00
             212.00,14.00 76.00,14.00 76.00,14.00 Z
           M 45.92,43.00
           C 45.92,43.00 19.00,74.00 19.00,74.00
             19.00,74.00 62.00,74.00 62.00,74.00
             62.00,74.00 62.00,26.00 62.00,26.00
             62.00,26.00 45.92,43.00 45.92,43.00 Z" />
</svg>
