<?xml version="1.0" encoding="UTF-8" standalone="no"?>
<!DOCTYPE svg PUBLIC "-//W3C//DTD SVG 20010904//EN"
              "http://www.w3.org/TR/2001/REC-SVG-20010904/DTD/svg10.dtd">

<svg xmlns="http://www.w3.org/2000/svg"
     width="2.55556in" height="1.85556in"
     viewBox="0 0 230 167">
  <path id="Selection"
        fill="none" stroke="black" stroke-width="3"
        d="M 225.00,42.00
           C 225.00,42.00 221.83,76.00 221.83,76.00
             221.83,76.00 217.17,127.00 217.17,127.00
             217.17,127.00 214.00,163.00 214.00,163.00
             214.00,163.00 81.00,163.00 81.00,163.00
             81.00,163.00 59.00,163.00 59.00,163.00
             59.00,163.00 44.00,164.00 44.00,164.00
             44.00,164.00 18.00,163.00 18.00,163.00
             18.00,163.00 16.30,154.00 16.30,154.00
             16.30,154.00 13.84,131.00 13.84,131.00
             13.84,131.00 8.17,81.00 8.17,81.00
             8.17,81.00 4.00,42.00 4.00,42.00
             4.00,42.00 225.00,42.00 225.00,42.00 Z
           M 113.00,4.00
           C 113.00,4.00 114.00,20.00 114.00,20.00
             114.00,20.00 202.00,20.00 202.00,20.00
             202.00,20.00 202.00,36.00 202.00,36.00
             202.00,36.00 28.00,36.00 28.00,36.00
             28.00,36.00 28.00,4.00 28.00,4.00
             28.00,4.00 113.00,4.00 113.00,4.00 Z
           M 118.00,0.00
           C 118.00,0.00 119.00,15.00 119.00,15.00
             119.00,15.00 207.00,15.00 207.00,15.00
             207.00,19.80 205.91,32.08 209.51,35.26
             212.56,37.96 225.56,37.00 230.00,37.00
             230.00,37.00 226.17,87.00 226.17,87.00
             226.17,87.00 219.00,167.00 219.00,167.00
             219.00,167.00 12.00,167.00 12.00,167.00
             12.00,167.00 3.83,89.00 3.83,89.00
             3.83,89.00 0.00,37.00 0.00,37.00
             0.00,37.00 22.00,37.00 22.00,37.00
             22.00,37.00 22.00,0.00 22.00,0.00
             22.00,0.00 118.00,0.00 118.00,0.00 Z
           M 24.00,27.00
           C 24.00,27.00 25.00,39.00 25.00,39.00
             25.00,39.00 25.00,1.00 25.00,1.00
             25.00,1.00 24.00,27.00 24.00,27.00 Z
           M 27.00,3.00
           C 27.00,3.00 27.00,37.00 27.00,37.00
             27.00,37.00 203.00,37.00 203.00,37.00
             203.00,37.00 203.00,19.00 203.00,19.00
             203.00,19.00 115.00,19.00 115.00,19.00
             115.00,19.00 114.00,3.00 114.00,3.00
             114.00,3.00 27.00,3.00 27.00,3.00 Z
           M 205.00,39.00
           C 205.00,39.00 209.00,38.00 209.00,38.00
             209.00,38.00 206.00,34.00 206.00,34.00
             206.00,34.00 205.00,39.00 205.00,39.00 Z
           M 3.00,41.00
           C 3.00,41.00 6.83,76.00 6.83,76.00
             6.83,76.00 17.00,164.00 17.00,164.00
             17.00,164.00 41.00,165.00 41.00,165.00
             41.00,165.00 58.00,164.00 58.00,164.00
             58.00,164.00 82.00,164.00 82.00,164.00
             82.00,164.00 215.00,164.00 215.00,164.00
             215.00,164.00 226.00,41.00 226.00,41.00
             226.00,41.00 3.00,41.00 3.00,41.00 Z
           M 228.00,53.00
           C 228.00,53.00 228.00,46.00 228.00,46.00
             228.00,46.00 228.00,53.00 228.00,53.00 Z
           M 227.00,63.00
           C 227.00,63.00 227.00,57.00 227.00,57.00
             227.00,57.00 227.00,63.00 227.00,63.00 Z
           M 3.00,64.00
           C 3.00,64.00 4.00,65.00 4.00,65.00
             4.00,65.00 4.00,64.00 4.00,64.00
             4.00,64.00 3.00,64.00 3.00,64.00 Z
           M 226.00,74.00
           C 226.00,74.00 226.00,68.00 226.00,68.00
             226.00,68.00 226.00,74.00 226.00,74.00 Z
           M 225.00,84.00
           C 225.00,84.00 225.00,79.00 225.00,79.00
             225.00,79.00 225.00,84.00 225.00,84.00 Z
           M 16.00,166.00
           C 16.00,166.00 14.00,155.00 14.00,155.00
             12.51,158.80 12.71,163.28 16.00,166.00 Z" />
</svg>
